<?xml version="1.0" standalone="no"?>
<!DOCTYPE svg PUBLIC "-//W3C//DTD SVG 1.1//EN" "http://www.w3.org/Graphics/SVG/1.1/DTD/svg11.dtd" >
<svg>
<metadata>
Created by FontForge 20110222 at Sat May 11 14:18:47 2013
 By Orthosie Webhosting
Copyright (c) 1998 by Matthew Welch. All Rights Reserved.
</metadata>
<defs>
<font id="SecretCodeRegular" horiz-adv-x="680" >
  <font-face 
    font-family="SecretCodeRegular"
    font-weight="400"
    font-stretch="normal"
    units-per-em="1280"
    panose-1="0 0 0 9 0 0 0 0 0 0"
    ascent="1024"
    descent="-256"
    x-height="600"
    cap-height="900"
    bbox="4 -300 676 980"
    underline-thickness="0"
    underline-position="0"
    unicode-range="U+0020-007E"
  />
<missing-glyph 
 />
    <glyph glyph-name=".notdef" 
 />
    <glyph glyph-name="glyph1" horiz-adv-x="0" 
 />
    <glyph glyph-name="nonmarkingreturn" horiz-adv-x="426" 
 />
    <glyph glyph-name="space" unicode=" " 
 />
    <glyph glyph-name="exclam" unicode="!" 
d="M325 260q-10 300 -10 420t5 170t20 50t20 -50t5 -170t-10 -420h-30zM290 50q0 20 15 35t35 15t35 -15t15 -35t-15 -35t-35 -15t-35 15t-15 35z" />
    <glyph glyph-name="quotedbl" unicode="&#x22;" 
d="M450 560v340h30v-340h-30zM200 560v340h30v-340h-30z" />
    <glyph glyph-name="numbersign" unicode="#" 
d="M200 0v270h-140v30h140v300h-140v30h140v270h30v-270h220v270h30v-270h140v-30h-140v-300h140v-30h-140v-270h-30v270h-220v-270h-30zM230 300h220v300h-220v-300z" />
    <glyph glyph-name="dollar" unicode="$" 
d="M60 248h30q0 -70 57 -144t178 -74v440q-37 14 -151 64t-114 156t74 158t191 52v80h30v-80q121 0 193 -52t72 -136h-30q0 76 -71 117t-164 41v-382q37 -16 151 -80t114 -180t-74 -172t-191 -56v-80h-30v80q-141 0 -203 84t-62 164zM352 460l3 -428q101 -2 168 43t67 149
t-97 160t-141 76zM325 500v370q-97 0 -166 -43t-69 -131t99 -138t136 -58z" />
    <glyph glyph-name="percent" unicode="%" 
d="M4 0l636 900h36l-636 -900h-36zM392 113q0 47 34 81t81 34t81 -34t34 -81t-34 -81t-81 -34t-81 34t-34 81zM60 785q0 47 34 81t81 34t81 -34t34 -81t-34 -81t-81 -34t-81 34t-34 81zM422 113q0 -35 25 -60t60 -25t60 25t25 60t-25 60t-60 25t-60 -25t-25 -60zM90 785
q0 -35 25 -60t60 -25t60 25t25 60t-25 60t-60 25t-60 -25t-25 -60z" />
    <glyph glyph-name="ampersand" unicode="&#x26;" 
d="M240 596q-100 108 -100 170t30 98t80 36t80 -36t30 -98t-88 -178t-135 -212t-47 -160t55 -125t155 -61t175 83t75 163t-41 130t-109 64v30h220v-30h-128q88 -98 88 -190t-47 -155l107 -104l-21 -21l-107 104q-88 -104 -212 -104t-182 70t-58 150t48 170t132 206zM260 620
q70 96 70 146t-23 77t-57 27t-57 -27t-23 -77t90 -146z" />
    <glyph glyph-name="quotesingle" unicode="'" 
d="M238 560l170 340h34l-170 -340h-34z" />
    <glyph glyph-name="parenleft" unicode="(" 
d="M422 0q-186 189 -186 450t186 450l21 -21q-177 -179 -177 -429t177 -429z" />
    <glyph glyph-name="parenright" unicode=")" 
d="M257 0l-21 21q177 179 177 429t-177 429l21 21q186 -189 186 -450t-186 -450z" />
    <glyph glyph-name="asterisk" unicode="*" 
d="M325 900h30v-272l241 136l12 -24l-236 -140l240 -140l-20 -20l-237 132v-272h-30v272l-237 -132l-16 28l236 132l-232 140l16 28l233 -140v272z" />
    <glyph glyph-name="plus" unicode="+" 
d="M115 435v30h210v210h30v-210h210v-30h-210v-210h-30v210h-210z" />
    <glyph glyph-name="comma" unicode="," 
d="M290 50q0 20 15 35t35 15t35 -15t15 -60t-22 -96t-78 -79q50 90 50 150q-20 0 -35 15t-15 35z" />
    <glyph glyph-name="hyphen" unicode="-" 
d="M115 435v30h450v-30h-450z" />
    <glyph glyph-name="period" unicode="." 
d="M290 50q0 20 15 35t35 15t35 -15t15 -35t-15 -35t-35 -15t-35 15t-15 35z" />
    <glyph glyph-name="slash" unicode="/" 
d="M4 0l636 900h36l-636 -900h-36z" />
    <glyph glyph-name="zero" unicode="0" 
d="M340 0q-120 0 -172.5 135t-52.5 315t52.5 315t172.5 135t172.5 -135t52.5 -315t-52.5 -315t-172.5 -135zM340 30q108 0 151.5 126t43.5 294t-43.5 294t-151.5 126t-151.5 -126t-43.5 -294t43.5 -294t151.5 -126z" />
    <glyph glyph-name="one" unicode="1" 
d="M265 780l120 120h30v-900h-30v858l-99 -99z" />
    <glyph glyph-name="two" unicode="2" 
d="M145 675h-30q0 92 66.5 158.5t158.5 66.5t158.5 -62.5t66.5 -158.5t-65 -179l-350 -470h415v-30h-450v30l361 490q59 75 59 155t-57.5 137.5t-137.5 57.5t-137.5 -57.5t-57.5 -137.5z" />
    <glyph glyph-name="three" unicode="3" 
d="M145 675h-30q0 92 66.5 158.5t158.5 66.5t158.5 -62.5t66.5 -158.5t-38.5 -147.5t-86.5 -81.5q48 -30 86.5 -81.5t38.5 -143.5t-66.5 -158.5t-158.5 -66.5t-158.5 66.5t-66.5 158.5h30q0 -80 57.5 -137.5t137.5 -57.5t137.5 57.5t57.5 137.5t-57.5 145t-137.5 65v30
q80 0 137.5 65t57.5 145t-57.5 137.5t-137.5 57.5t-137.5 -57.5t-57.5 -137.5z" />
    <glyph glyph-name="four" unicode="4" 
d="M430 0v270h-315v30q145 120 145 460h30q0 -340 -130 -460h270v600h30v-600h105v-30h-105v-270h-30z" />
    <glyph glyph-name="five" unicode="5" 
d="M172 516q76 84 168 84t158.5 -88t66.5 -212t-66.5 -212t-158.5 -88t-158.5 66.5t-66.5 158.5h30q0 -80 57.5 -137.5t137.5 -57.5t137.5 79t57.5 191t-57.5 191t-137.5 79t-184 -126l-24 16l56 440h328v-30h-296z" />
    <glyph glyph-name="six" unicode="6" 
d="M148 464q4 24 52 80t140 56t158.5 -88t66.5 -212t-66.5 -212t-158.5 -88t-158.5 88t-66.5 212q0 372 66.5 486t158.5 114t136 -32t64 -64l-20 -20q-20 32 -60 59t-120 27t-134 -109t-58 -297zM145 300q0 -112 57.5 -191t137.5 -79t137.5 79t57.5 191t-57.5 191t-137.5 79
t-137.5 -79t-57.5 -191z" />
    <glyph glyph-name="seven" unicode="7" 
d="M115 870v30h450v-30l-417 -870h-33l417 872z" />
    <glyph glyph-name="eight" unicode="8" 
d="M340 465q80 0 137.5 65t57.5 145t-57.5 137.5t-137.5 57.5t-137.5 -57.5t-57.5 -137.5t57.5 -145t137.5 -65zM340 435q-80 0 -137.5 -65t-57.5 -145t57.5 -137.5t137.5 -57.5t137.5 57.5t57.5 137.5t-57.5 145t-137.5 65zM240 450q-48 30 -86.5 81.5t-38.5 143.5
t66.5 158.5t158.5 66.5t158.5 -62.5t66.5 -158.5t-38.5 -147.5t-86.5 -81.5q48 -30 86.5 -81.5t38.5 -143.5t-66.5 -158.5t-158.5 -66.5t-158.5 66.5t-66.5 158.5t38.5 143.5t86.5 81.5z" />
    <glyph glyph-name="nine" unicode="9" 
d="M532 436q-4 -24 -52 -80t-140 -56t-158.5 88t-66.5 212t66.5 212t158.5 88t158.5 -88t66.5 -212q0 -372 -66.5 -486t-158.5 -114t-136 32t-64 64l20 20q20 -32 60 -59t120 -27t134 109t58 297zM535 600q0 112 -57.5 191t-137.5 79t-137.5 -79t-57.5 -191t57.5 -191
t137.5 -79t137.5 79t57.5 191z" />
    <glyph glyph-name="colon" unicode=":" 
d="M290 450q0 20 15 35t35 15t35 -15t15 -35t-15 -35t-35 -15t-35 15t-15 35zM290 50q0 20 15 35t35 15t35 -15t15 -35t-15 -35t-35 -15t-35 15t-15 35z" />
    <glyph glyph-name="semicolon" unicode=";" 
d="M290 50q0 20 15 35t35 15t35 -15t15 -60t-22 -96t-78 -79q50 90 50 150q-20 0 -35 15t-15 35zM290 450q0 20 15 35t35 15t35 -15t15 -35t-15 -35t-35 -15t-35 15t-15 35z" />
    <glyph glyph-name="less" unicode="&#x3c;" 
d="M115 450l450 225v-30l-393 -195l393 -195v-30z" />
    <glyph glyph-name="equal" unicode="=" 
d="M115 555v30h450v-30h-450zM115 315v30h450v-30h-450z" />
    <glyph glyph-name="greater" unicode="&#x3e;" 
d="M565 450l-450 -225v30l393 195l-393 195v30z" />
    <glyph glyph-name="question" unicode="?" 
d="M145 675h-30q0 92 66.5 158.5t158.5 66.5t158.5 -62.5t66.5 -158.5t-52.5 -157.5t-105 -109.5t-52.5 -112v-40h-30v40q0 80 47.5 122.5t105 107.5t57.5 145t-57.5 137.5t-137.5 57.5t-137.5 -57.5t-57.5 -137.5zM290 50q0 20 15 35t35 15t35 -15t15 -35t-15 -35t-35 -15
t-35 15t-15 35z" />
    <glyph glyph-name="at" unicode="@" 
d="M432 580v-180q0 -24 40 -44t89 20t49 122t-79 152t-189 70t-191 -80t-81 -190t81 -190t189 -80t156 28l20 -20q-56 -38 -176 -38t-210 90t-90 210t90 210t210 90t210 -79t90 -169t-44 -136t-90 -46t-82 40q-40 -40 -92 -40t-88 34t-36 102t42 96t182 28zM402 550
q-110 2 -138 -20t-28 -76t28 -80t66 -26t56 24t16 178z" />
    <glyph glyph-name="A" unicode="A" 
d="M4 0l321 900h30l321 -900h-30l-96 272l-420 -2l-96 -270h-30zM340 858l-199 -558h398z" />
    <glyph glyph-name="B" unicode="B" 
d="M60 0v900h348q93 0 162.5 -70t69.5 -163t-50 -146t-84 -71q34 -18 84 -71.5t50 -146.5t-69.5 -162.5t-162.5 -69.5h-348zM90 870v-405h318q81 0 141.5 60.5t60.5 141.5t-60.5 142t-141.5 61h-318zM90 435v-405h318q81 0 141.5 60.5t60.5 141.5t-60.5 142t-141.5 61h-318z
" />
    <glyph glyph-name="C" unicode="C" 
d="M385 30q108 0 189 126l21 -21q-90 -135 -210 -135t-210 135t-90 315t90 315t210 135t210 -135l-21 -21q-81 126 -189 126t-189 -126t-81 -294t81 -294t189 -126z" />
    <glyph glyph-name="D" unicode="D" 
d="M240 0h-180v900h180q160 0 280 -135t120 -315t-120 -315t-280 -135zM240 32q148 -2 259 124t111 294t-111 294t-259 126h-150v-840z" />
    <glyph glyph-name="E" unicode="E" 
d="M60 0v900h560v-30h-530v-405h350v-30h-350v-405h530v-30h-560z" />
    <glyph glyph-name="F" unicode="F" 
d="M60 0v900h560v-30h-530v-405h350v-30h-350v-435h-30z" />
    <glyph glyph-name="G" unicode="G" 
d="M340 30q108 0 189 126t81 264h-230v30h260q0 -180 -90 -315t-210 -135t-210 135t-90 315t90 315t210 135q144 0 212 -80l-28 -12q-56 62 -184 62q-108 0 -189 -126t-81 -294t81 -294t189 -126z" />
    <glyph glyph-name="H" unicode="H" 
d="M60 0v900h30v-435h500v435h30v-900h-30v435h-500v-435h-30z" />
    <glyph glyph-name="I" unicode="I" 
d="M140 900h400v-30h-185v-840h185v-30h-400v30h185v840h-185v30z" />
    <glyph glyph-name="J" unicode="J" 
d="M340 30q108 0 189 81t81 189v600h30v-600q0 -120 -90 -210t-210 -90t-210 90t-90 210h30q0 -108 81 -189t189 -81z" />
    <glyph glyph-name="K" unicode="K" 
d="M60 0v900h30v-480l544 480h42l-408 -356l408 -544h-42l-386 524l-158 -146v-378h-30z" />
    <glyph glyph-name="L" unicode="L" 
d="M60 0v900h30v-870h530v-30h-560z" />
    <glyph glyph-name="M" unicode="M" 
d="M60 0v900h30l250 -536l250 536h30v-900h-30v828l-250 -536l-250 536v-828h-30z" />
    <glyph glyph-name="N" unicode="N" 
d="M60 0v900h30l500 -834v834h30v-900h-30l-500 834v-834h-30z" />
    <glyph glyph-name="O" unicode="O" 
d="M340 0q-120 0 -210 135t-90 315t90 315t210 135t210 -135t90 -315t-90 -315t-210 -135zM340 30q108 0 189 126t81 294t-81 294t-189 126t-189 -126t-81 -294t81 -294t189 -126z" />
    <glyph glyph-name="P" unicode="P" 
d="M60 0v900h348q93 0 162.5 -70t69.5 -163t-69.5 -167.5t-162.5 -74.5h-318v-425h-30zM90 870v-405h318q81 0 141.5 60.5t60.5 141.5t-60.5 142t-141.5 61h-318z" />
    <glyph glyph-name="Q" unicode="Q" 
d="M340 0q-120 0 -210 135t-90 315t90 315t210 135t210 -135t90 -315t-80 -306l88 -120l-24 -24l-84 116q-80 -116 -200 -116zM340 30q108 0 184 114l-152 208l20 28l148 -204q70 106 70 274t-81 294t-189 126t-189 -126t-81 -294t81 -294t189 -126z" />
    <glyph glyph-name="R" unicode="R" 
d="M60 0v900h348q93 0 162.5 -70t69.5 -163t-69.5 -167.5t-162.5 -74.5l268 -425h-40l-268 425h-278v-425h-30zM90 870v-405h318q81 0 141.5 60.5t60.5 141.5t-60.5 142t-141.5 61h-318z" />
    <glyph glyph-name="S" unicode="S" 
d="M60 248h30q0 -70 57 -144t183 -74t193 45t67 149t-132.5 175t-265 128t-132.5 163t74 158t208 52t206 -52t72 -136h-30q0 76 -71 117t-181 41t-179 -43t-69 -131t132.5 -148t265 -132t132.5 -188t-74 -172t-218 -56t-206 84t-62 164z" />
    <glyph glyph-name="T" unicode="T" 
d="M60 900h560v-30h-265v-870h-30v870h-265v30z" />
    <glyph glyph-name="U" unicode="U" 
d="M340 30q108 0 189 81t81 189v600h30v-600q0 -120 -90 -210t-210 -90t-210 90t-90 210v600h30v-600q0 -108 81 -189t189 -81z" />
    <glyph glyph-name="V" unicode="V" 
d="M4 900l321 -900h30l321 900h-30l-306 -858l-306 858h-30z" />
    <glyph glyph-name="W" unicode="W" 
d="M4 900h30l150 -844l141 396h30l141 -396l150 844h30l-160 -900h-30l-146 400l-146 -400h-30z" />
    <glyph glyph-name="X" unicode="X" 
d="M4 900h30l306 -429l306 429h30l-321 -450l321 -450h-30l-306 429l-306 -429h-30l321 450z" />
    <glyph glyph-name="Y" unicode="Y" 
d="M4 900h30l306 -429l306 429h30l-321 -450v-450h-30v450z" />
    <glyph glyph-name="Z" unicode="Z" 
d="M20 870v30h640v-30l-596 -840h596v-30h-640v30l596 840h-596z" />
    <glyph glyph-name="bracketleft" unicode="[" 
d="M190 900h300v-30h-270v-840h270v-30h-300v900z" />
    <glyph glyph-name="backslash" unicode="\" 
d="M676 0h-36l-636 900h36z" />
    <glyph glyph-name="bracketright" unicode="]" 
d="M490 900v-900h-300v30h270v840h-270v30h300z" />
    <glyph glyph-name="asciicircum" unicode="^" 
d="M40 600l300 300l300 -300l-20 -20l-280 280l-280 -280z" />
    <glyph glyph-name="underscore" unicode="_" 
d="M60 0v30h560v-30h-560z" />
    <glyph glyph-name="grave" unicode="`" 
d="M442 560h-34l-170 340h34z" />
    <glyph glyph-name="a" unicode="a" 
d="M620 0h-30v60q-130 -60 -258 -60t-200 46t-72 130t80 129t200 45q156 0 202 11t48 39q0 72 -69 121t-181 49t-160 -29t-64 -53l-20 20q12 24 68 58t176 34t200 -60t80 -140v-400zM590 92l-2 264q0 -20 -76 -28t-172 -8q-108 0 -179 -40t-71 -106t65 -105t177 -39t258 62z
" />
    <glyph glyph-name="b" unicode="b" 
d="M340 0q-120 0 -190 68t-80 92v-160h-30v900h30v-460q10 24 80 92t190 68t210 -90t90 -210t-90 -210t-210 -90zM340 30q108 0 189 81t81 189t-81 189t-189 81t-189 -81t-81 -189t81 -189t189 -81z" />
    <glyph glyph-name="c" unicode="c" 
d="M385 30q108 0 189 81l21 -21q-90 -90 -210 -90t-210 90t-90 210t90 210t210 90t210 -90l-21 -21q-81 81 -189 81t-189 -81t-81 -189t81 -189t189 -81z" />
    <glyph glyph-name="d" unicode="d" 
d="M340 0q-120 0 -210 90t-90 210t90 210t210 90t190 -68t80 -92v460h30v-900h-30v160q-10 -24 -80 -92t-190 -68zM340 30q108 0 189 81t81 189t-81 189t-189 81t-189 -81t-81 -189t81 -189t189 -81z" />
    <glyph glyph-name="e" unicode="e" 
d="M340 30q108 0 162 41t86 93l24 -16q-32 -56 -92 -102t-180 -46t-210 90t-90 210t90 210t210 90t210 -90t90 -210h-570q0 -108 81 -189t189 -81zM72 330h536q2 78 -79 159t-189 81t-189 -81t-79 -159z" />
    <glyph glyph-name="f" unicode="f" 
d="M324 0v570h-180v30h180v100q0 80 60 140t140 60t140 -60l-21 -21q-51 51 -119 51t-119 -51t-51 -119v-100h170v-30h-170v-570h-30z" />
    <glyph glyph-name="g" unicode="g" 
d="M340 0q-120 0 -210 90t-90 210t90 210t210 90t190 -68t80 -92v160h30v-600q0 -120 -90 -210t-210 -90h-200l4 30h196q108 0 189 81t81 189v160q-10 -24 -80 -92t-190 -68zM340 30q108 0 189 81t81 189t-81 189t-189 81t-189 -81t-81 -189t81 -189t189 -81z" />
    <glyph glyph-name="h" unicode="h" 
d="M590 0v300q0 108 -71 189t-179 81q-96 0 -160 -37t-92 -69l2 -464h-30v900h30l-2 -400q28 28 86 64t166 36q120 0 200 -90t80 -210v-300h-30z" />
    <glyph glyph-name="i" unicode="i" 
d="M200 600h155v-570h185v-30h-400v30h185v540h-125v30zM315 801q0 10 7.5 17.5t17.5 7.5t17.5 -7.5t7.5 -17.5t-7.5 -17.5t-17.5 -7.5t-17.5 7.5t-7.5 17.5z" />
    <glyph glyph-name="j" unicode="j" 
d="M435 600h155v-600q0 -120 -90 -210t-210 -90t-210 90l21 19q81 -83 189 -81t189 83t81 189v570h-125v30zM550 801q0 10 7.5 17.5t17.5 7.5t17.5 -7.5t7.5 -17.5t-7.5 -17.5t-17.5 -7.5t-17.5 7.5t-7.5 17.5z" />
    <glyph glyph-name="k" unicode="k" 
d="M60 0v900h30v-660l482 360h48l-288 -212l288 -388h-36l-276 372l-218 -164v-208h-30z" />
    <glyph glyph-name="l" unicode="l" 
d="M200 900h155v-870h185v-30h-400v30h185v840h-125v30z" />
    <glyph glyph-name="m" unicode="m" 
d="M590 0v450q0 58 -35 89t-85 31t-82.5 -30t-32.5 -90v-450h-30v450q0 60 -32.5 90t-82.5 30t-78 -19t-42 -35v-516h-30v600h30l-2 -44q16 16 39 30t83 14t89 -20t41 -48q70 68 130 68t105 -44t45 -106v-450h-30z" />
    <glyph glyph-name="n" unicode="n" 
d="M590 0v300q0 108 -71 189t-179 81q-96 0 -160 -37t-90 -69v-464h-30v600h30v-100q26 28 84 64t166 36q120 0 200 -90t80 -210v-300h-30z" />
    <glyph glyph-name="o" unicode="o" 
d="M340 0q-120 0 -210 90t-90 210t90 210t210 90t210 -90t90 -210t-90 -210t-210 -90zM340 30q108 0 189 81t81 189t-81 189t-189 81t-189 -81t-81 -189t81 -189t189 -81z" />
    <glyph glyph-name="p" unicode="p" 
d="M340 0q-120 0 -190 68t-80 92v-460h-30v900h30v-160q10 24 80 92t190 68t210 -90t90 -210t-90 -210t-210 -90zM340 30q108 0 189 81t81 189t-81 189t-189 81t-189 -81t-81 -189t81 -189t189 -81z" />
    <glyph glyph-name="q" unicode="q" 
d="M340 0q120 0 190 68t80 92v-460h30v900h-30v-160q-10 24 -80 92t-190 68t-210 -90t-90 -210t90 -210t210 -90zM340 30q-108 0 -189 81t-81 189t81 189t189 81t189 -81t81 -189t-81 -189t-189 -81z" />
    <glyph glyph-name="r" unicode="r" 
d="M559 489q-71 81 -179 81q-96 0 -160 -37t-92 -69l2 -464h-30v600h30l-2 -100q28 28 86 64t166 36q120 0 200 -90z" />
    <glyph glyph-name="s" unicode="s" 
d="M580 524l-20 -20q-112 66 -220 66t-159 -33t-51 -87t107 -96t225 -88t118 -116t-60 -110t-180 -40t-240 76l20 20q112 -66 220 -66t159 33t51 87t-107 96t-225 88t-118 116t60 110t180 40t240 -76z" />
    <glyph glyph-name="t" unicode="t" 
d="M325 0v570h-185v30h185v200h30v-200h185v-30h-185v-570h-30z" />
    <glyph glyph-name="u" unicode="u" 
d="M90 600v-300q0 -108 71 -189t179 -81q96 0 160 37t90 69v464h30v-600h-30v100q-26 -28 -84 -64t-166 -36q-120 0 -200 90t-80 210v300h30z" />
    <glyph glyph-name="v" unicode="v" 
d="M4 600h36l300 -568l300 568h36l-321 -600h-30z" />
    <glyph glyph-name="w" unicode="w" 
d="M4 600h36l150 -544l135 544h30l135 -544l150 544h36l-171 -600h-30l-135 532l-135 -532h-30z" />
    <glyph glyph-name="x" unicode="x" 
d="M4 600h36l300 -282l300 282h36l-318 -300l318 -300h-36l-300 282l-300 -282h-36l318 300z" />
    <glyph glyph-name="y" unicode="y" 
d="M4 600h36l300 -568l300 568h36l-411 -780q-60 -120 -169 -120h-60v30l60 2q94 -2 139 88l90 180z" />
    <glyph glyph-name="z" unicode="z" 
d="M40 570v30h600v-30l-558 -540h558v-30h-600v30l558 540h-558z" />
    <glyph glyph-name="braceleft" unicode="{" 
d="M540 0q-80 0 -140 60t-60 140v50q0 74 -60 129.5t-140 55.5v30q80 0 140 57.5t60 127.5v50q0 80 60 140t140 60v-30q-68 0 -119 -51t-51 -119v-50q0 -80 -41 -127t-89 -73q48 -22 89 -71t41 -129v-50q0 -72 49 -121t121 -49v-30z" />
    <glyph glyph-name="bar" unicode="|" 
d="M325 0v900h30v-900h-30z" />
    <glyph glyph-name="braceright" unicode="}" 
d="M140 0v30q72 0 121 49t49 121v50q0 80 41 129t89 71q-48 26 -89 73t-41 127v50q0 68 -51 119t-119 51v30q80 0 140 -60t60 -140v-50q0 -70 60 -127.5t140 -57.5v-30q-80 0 -140 -55.5t-60 -129.5v-50q0 -80 -60 -140t-140 -60z" />
    <glyph glyph-name="asciitilde" unicode="~" 
d="M60 740q0 76 38 118t98 42t152 -65t136 -65t75 35t31 95h30q0 -76 -38 -118t-98 -42t-152 65t-136 65t-75 -35t-31 -95h-30z" />
  </font>
</defs>
</svg>
